<svg t="1708028798096" class="icon" viewBox="0 0 1024 1024" version="1.1" xmlns="http://www.w3.org/2000/svg" p-id="4307" width="40" height="40">
    <path d="M245.717333 169.6h76.074667V245.76H245.717333v190.208A76.074667 76.074667 0 0 1 169.6 512a76.074667 76.074667 0 0 1 76.117333 76.074667v190.250666h76.074667v76.074667H245.717333c-40.704-10.24-76.117333-34.261333-76.117333-76.074667v-152.192a76.074667 76.074667 0 0 0-76.074667-76.074666H55.466667v-76.074667h38.058666a76.074667 76.074667 0 0 0 76.074667-76.117333V245.76A76.074667 76.074667 0 0 1 245.76 169.6m532.608 0a76.074667 76.074667 0 0 1 76.074667 76.117333v152.149334a76.074667 76.074667 0 0 0 76.074666 76.117333h38.058667v76.074667h-38.058667a76.074667 76.074667 0 0 0-76.074666 76.074666v152.192a76.074667 76.074667 0 0 1-76.074667 76.074667h-76.117333v-76.074667h76.117333v-190.250666A76.074667 76.074667 0 0 1 854.4 512a76.074667 76.074667 0 0 1-76.074667-76.074667V245.717333h-76.117333V169.6h76.117333M512 626.133333a38.058667 38.058667 0 0 1 38.058667 38.058667 38.058667 38.058667 0 0 1-38.058667 38.058667 38.058667 38.058667 0 0 1-38.016-38.058667 38.058667 38.058667 0 0 1 38.016-38.058667m-152.149333 0a38.058667 38.058667 0 0 1 38.016 38.058667 38.058667 38.058667 0 0 1-38.016 38.058667 38.058667 38.058667 0 0 1-38.058667-38.058667 38.058667 38.058667 0 0 1 38.058667-38.058667m304.341333 0a38.058667 38.058667 0 0 1 38.016 38.058667 38.058667 38.058667 0 0 1-38.016 38.058667 38.058667 38.058667 0 0 1-38.058667-38.058667 38.058667 38.058667 0 0 1 38.058667-38.058667z" fill="#1296db" p-id="4308"></path>
</svg>